<?xml version="1.0" encoding="UTF-8"?>
<svg id="Calque_1" xmlns="http://www.w3.org/2000/svg" version="1.1" viewBox="0 0 384 384">
  <!-- Generator: Adobe Illustrator 29.6.0, SVG Export Plug-In . SVG Version: 2.1.1 Build 207)  -->
  <defs>
    <style>
      .st0 {
        fill: #c5edf1;
        stroke: #2d4356;
        stroke-miterlimit: 10;
        stroke-width: 11px;
      }

      .st1 {
        fill: #2d4356;
      }
    </style>
  </defs>
  <path class="st1" d="M324.4,195.3c2.8,1.7,11,5,12.7,7.1s.9,1.2.8,2.2v59.1c-1.1,5.5-14.8,13-14.3,13.9l14.1,8.8-.4,62.2c-4.9,13.1-41.3,23.2-54.1,26-54.5,12.2-129.1,12.3-183.4-.7-14.7-3.5-51.1-13.6-53.1-31.4l.2-52.2c4.3-5.2,10.1-10,16.3-12.5-6.9-5.2-15.2-9.5-16.5-19.1v-53c.1,0,15.7-10.6,15.7-10.6l-10.9-8.6c-1.8-2-4.2-6.2-4.7-8.8-2.5-15,1.5-35.8-.1-51.4.8-4.9,12.2-12.3,16.4-15-6.9-4.2-14.6-8.8-16.3-17.4l.2-56.3c5.9-8.5,16-14,25.3-18.1,58.2-25.8,185.3-25.1,243.5.7,7.6,3.4,16.9,8.2,21.9,14.7v63.4c-3.2,5.8-9,9.2-14.2,12.9,3,2.6,13.5,8.1,14.2,12l-.4,59.5c-1.6,2.5-3.7,4.8-6,6.7s-8,4.7-7.1,6ZM179.8,21.2c-29.3.9-66.6,4.5-93.8,15.5-4.3,1.7-25.9,10.8-16,16.8,6.3,3.8,27.8,8.2,35.8,9.8,55.9,11,150.8,12.6,204.3-7.5,14.5-5.5,5.3-11.4-3.6-15.8-32.7-16.3-90.5-19.8-126.8-18.7ZM318.4,113.8c-19.3,8.8-40.8,13.5-61.9,16.4-36.5,5-77,5.4-113.7,1.6-25.6-2.7-51.6-7.7-75.2-18v22.1c14.9,6.4,31.7,10.2,47.8,12.9,56,9.5,124.3,8.8,179.5-4.9,7.8-1.9,16.5-4.2,23.5-8v-22.1ZM318.4,197.6c-27.9,11-58,16.6-88,18.7-42.6,3-92.9,1.3-134.4-9.3s-19-6-28.4-9.4v20.6c14.8,6.5,31.7,10.2,47.8,12.9,56.1,9.5,124.8,8.9,180.1-5.1,7.6-1.9,16.1-4.1,22.9-7.8v-20.6ZM318.4,279.9c-19.8,8.8-41.9,13.5-63.4,16.4-36,4.8-74.5,5.2-110.7,1.6s-52.5-7.9-76.7-18v22.5c20.9,7.5,42.8,12.1,64.8,14.9,46.4,5.8,95.9,5.1,141.9-3.1,14.9-2.7,30.2-6.2,44-12.1v-22.1Z"/>
  <g>
    <path class="st0" d="M191.3,94.9c2.7-.6,4.7.9,6.1,3,20.1,41.1,46.4,81.1,65.3,122.6,17.1,37.5,17.9,82.7-11.3,114.6-45.8,50-124.1,24.3-139.3-39.4-10.4-43.4,9.2-73.9,28.3-110.3,14.3-27.2,29.3-57.6,44.9-83.8,1.4-2.3,3.2-6.2,5.9-6.8Z"/>
    <path class="st1" d="M251.5,239.3c-2-2.2-5.9-2.1-7.8.1-3.4,3.8.7,8.7,2,12.7,5.1,15.1,6,28.8-1.2,43.5-1.8,3.6-10.3,13.8-10.7,15.4-1.3,5.8,4.8,9.1,9.2,5.2,13.6-12,19.2-36.6,16.5-53.8-.8-4.8-5-19.7-8-23Z"/>
  </g>
</svg>